HIERARCHY
ROOT Hips
{
	OFFSET	0.00	0.00	0.00
	CHANNELS 6 Xposition Yposition Zposition Zrotation Xrotation Yrotation
	JOINT LeftUpLeg
	{
		OFFSET	 0.126116	-0.014019	-0.065224
		CHANNELS 3 Zrotation Xrotation Yrotation
		JOINT LeftLeg
		{
			OFFSET	 0.000000	 0.000000	 0.569914
			CHANNELS 3 Zrotation Xrotation Yrotation
			JOINT LeftFoot
			{
				OFFSET	 0.000000	 0.000000	 0.544423
				CHANNELS 3 Zrotation Xrotation Yrotation
				JOINT LeftToeBase
				{
					OFFSET	 0.000000	 0.000000	 0.207117
					CHANNELS 3 Zrotation Xrotation Yrotation
					End Site
					{
						OFFSET	 0.000000	 0.000000	 0.207117
					}
				}
			}
		}
	}
	JOINT RightUpLeg
	{
		OFFSET	-0.124023	-0.008373	-0.065224
		CHANNELS 3 Zrotation Xrotation Yrotation
		JOINT RightLeg
		{
			OFFSET	 0.000000	 0.000000	 0.570047
			CHANNELS 3 Zrotation Xrotation Yrotation
			JOINT RightFoot
			{
				OFFSET	 0.000000	 0.000000	 0.544354
				CHANNELS 3 Zrotation Xrotation Yrotation
				JOINT RightToeBase
				{
					OFFSET	 0.000000	 0.000000	 0.207540
					CHANNELS 3 Zrotation Xrotation Yrotation
					End Site
					{
						OFFSET	 0.000000	 0.000000	 0.207540
					}
				}
			}
		}
	}
	JOINT Spine
	{
		OFFSET	 0.000184	-0.007763	 0.117403
		CHANNELS 3 Zrotation Xrotation Yrotation
		JOINT Spine1
		{
			OFFSET	 0.000000	 0.000000	 0.137269
			CHANNELS 3 Zrotation Xrotation Yrotation
			JOINT Spine2
			{
				OFFSET	 0.000000	 0.000000	 0.156879
				CHANNELS 3 Zrotation Xrotation Yrotation
				JOINT LeftShoulder
				{
					OFFSET	 0.080501	-0.002496	 0.160144
					CHANNELS 3 Zrotation Xrotation Yrotation
					JOINT LeftArm
					{
						OFFSET	 0.000000	 0.000000	 0.164363
						CHANNELS 3 Zrotation Xrotation Yrotation
						JOINT LeftForeArm
						{
							OFFSET	 0.000000	 0.000000	 0.364576
							CHANNELS 3 Zrotation Xrotation Yrotation
							JOINT LeftHand
							{
								OFFSET	 0.000000	 0.000000	 0.360812
								CHANNELS 3 Zrotation Xrotation Yrotation
								JOINT LeftHandIndex1
								{
									OFFSET	 0.000000	 0.000000	 0.086006
									CHANNELS 3 Zrotation Xrotation Yrotation
									JOINT LeftHandIndex2
									{
										OFFSET	 0.000000	 0.000000	 0.047237
										CHANNELS 3 Zrotation Xrotation Yrotation
										JOINT LeftHandIndex3
										{
											OFFSET	-0.004284	-0.000551	 0.038165
											CHANNELS 3 Zrotation Xrotation Yrotation
											End Site
											{
												OFFSET	-0.004284	-0.000551	 0.038165
											}
										}
									}
								}
							}
						}
					}
				}
				JOINT Neck
				{
					OFFSET	 0.000000	 0.000000	 0.176489
					CHANNELS 3 Zrotation Xrotation Yrotation
					JOINT Head
					{
						OFFSET	 0.000000	-0.001747	 0.077940
						CHANNELS 3 Zrotation Xrotation Yrotation
						End Site
						{
							OFFSET	 0.000000	-0.001747	 0.077940
						}
					}
				}
				JOINT RightShoulder
				{
					OFFSET	-0.080363	 0.000306	 0.159706
					CHANNELS 3 Zrotation Xrotation Yrotation
					JOINT RightArm
					{
						OFFSET	 0.000000	 0.000000	 0.164196
						CHANNELS 3 Zrotation Xrotation Yrotation
						JOINT RightForeArm
						{
							OFFSET	 0.000000	 0.000000	 0.365611
							CHANNELS 3 Zrotation Xrotation Yrotation
							JOINT RightHand
							{
								OFFSET	 0.000000	 0.000000	 0.360648
								CHANNELS 3 Zrotation Xrotation Yrotation
								JOINT RightHandIndex1
								{
									OFFSET	 0.000000	 0.000000	 0.069977
									CHANNELS 3 Zrotation Xrotation Yrotation
									JOINT RightHandIndex2
									{
										OFFSET	 0.000000	 0.000000	 0.052305
										CHANNELS 3 Zrotation Xrotation Yrotation
										JOINT RightHandIndex3
										{
											OFFSET	 0.009002	-0.000782	 0.042196
											CHANNELS 3 Zrotation Xrotation Yrotation
											End Site
											{
												OFFSET	 0.009002	-0.000782	 0.042196
											}
										}
									}
								}
							}
						}
					}
				}
			}
		}
	}
}
MOTION
Frames:    10
Frame Time: 0.03333334
-0.397568	 0.181550	 1.238744	-174.831600	 8.130780	 15.439650	 18.427540	-10.145360	 172.906100	-8.728938	-43.981370	-6.480831	 123.544000	 68.682010	-138.321900	-2.385833	 28.452760	 0.000004	-7.333766	-44.132890	 155.555400	 5.442904	-49.628130	 2.988631	-2.700431	 70.724750	 22.344860	 2.384659	 28.388700	-0.000001	 41.917170	-19.724870	 1.801148	 46.298370	 21.775480	 16.714010	-6.758874	-2.330190	-16.150990	-91.776160	 78.527360	 180.000000	-2.700972	 45.538280	-6.073683	-2.807111	-2.926455	-105.676600	 4.298305	-11.626430	-0.738790	-4.130319	 21.525730	 0.991547	-5.167930	 0.731704	 3.519349	-1.378229	 35.397820	-2.634230	-18.476730	 7.042461	 7.717961	-23.103440	-21.523460	-15.511700	 89.782190	 78.314260	 179.992300	 49.551130	 12.053460	-5.911603	-15.793550	-9.491189	 43.846220	-12.272670	-11.453410	-96.126640	 5.716227	 19.173190	-3.685159	 5.027444	 0.246877	-9.377972	-2.350882	 35.473990	 5.254307
-0.402037	 0.188283	 1.240141	-174.441400	 8.125929	 14.829270	 19.149400	-9.022236	 173.538700	-8.571757	-42.542500	-6.203770	 122.345700	 68.741040	-137.007300	-2.385833	 28.452760	 0.000004	-6.709498	-43.595390	 156.737400	 5.673528	-49.471860	 3.157357	-2.806180	 71.105830	 21.874580	 2.384659	 28.388700	-0.000001	 40.571000	-18.889630	 2.115305	 44.961880	 20.624410	 17.622260	-6.371051	-1.901811	-16.013760	-91.776180	 78.527330	-180.000000	-4.590312	 43.747540	-2.242232	-2.834908	-2.980375	-105.902900	 4.560567	-12.338220	-0.648433	-4.130319	 21.525730	 0.991547	-5.167930	 0.731704	 3.519349	-1.378229	 35.397820	-2.634230	-18.100030	 7.426819	 7.614999	-22.997380	-22.106840	-15.479660	 89.782120	 78.311070	 179.992900	 54.845020	 6.157866	-8.580998	-14.925000	-9.175932	 45.609770	-17.351280	-3.353151	-91.760690	 5.716227	 19.173190	-3.685159	 5.027444	 0.246877	-9.377972	-2.350882	 35.473990	 5.254307
-0.405593	 0.194063	 1.241396	-174.081800	 8.070563	 14.314250	 19.733780	-8.003798	 174.010400	-8.441197	-41.305240	-5.970063	 121.365300	 68.855780	-135.930500	-2.385833	 28.452760	 0.000004	-6.223620	-43.061490	 157.692300	 5.901517	-49.319600	 3.323491	-3.060040	 71.429600	 21.647150	 2.384659	 28.388700	-0.000001	 39.383500	-18.135350	 2.385520	 43.838530	 19.548320	 18.395570	-6.016632	-1.493102	-15.877180	-91.776150	 78.527400	 180.000000	-6.014444	 42.219830	 0.891622	-2.860939	-3.023558	-106.144200	 4.799246	-12.995450	-0.566043	-4.130319	 21.525730	 0.991547	-5.167930	 0.731704	 3.519349	-1.378229	 35.397820	-2.634230	-17.764800	 7.785034	 7.564372	-22.909340	-22.607890	-15.543600	 89.782100	 78.308400	 179.993300	 57.745410	 1.131504	-9.761024	-14.278010	-8.728148	 46.389240	-21.324150	 2.171509	-87.475390	 5.716227	 19.173190	-3.685159	 5.027444	 0.246877	-9.377972	-2.350882	 35.473990	 5.254307
-0.408743	 0.200048	 1.242844	-173.791100	 8.048580	 13.378080	 20.220650	-6.572087	 174.905200	-8.466940	-39.670380	-5.791824	 120.192100	 68.643530	-134.518300	-2.385833	 28.452760	 0.000004	-5.030460	-42.766940	 159.297900	 5.891222	-49.469410	 3.323093	-2.366126	 71.993420	 20.581200	 2.384659	 28.388700	-0.000001	 38.380590	-17.178910	 3.080136	 42.696430	 18.654040	 18.996540	-5.710507	-1.166575	-15.653130	-91.776180	 78.527350	 180.000000	-7.455721	 40.674770	 4.078197	-2.897505	-3.047751	-106.655000	 4.988505	-13.879840	-0.475711	-4.130319	 21.525730	 0.991547	-5.167930	 0.731704	 3.519349	-1.378229	 35.397820	-2.634230	-17.592620	 7.753093	 8.022607	-22.735640	-22.387130	-16.283460	 89.782160	 78.306320	 179.993200	 59.212640	-3.628981	-10.232960	-13.882490	-8.197701	 46.036510	-24.281150	 5.980768	-83.098080	 5.716227	 19.173190	-3.685159	 5.027444	 0.246877	-9.377972	-2.350882	 35.473990	 5.254307
-0.411059	 0.205085	 1.244100	-173.536400	 8.011703	 12.530540	 20.585820	-5.237125	 175.647500	-8.518036	-38.229240	-5.647601	 119.351400	 68.441250	-133.442700	-2.385833	 28.452760	 0.000004	-3.936677	-42.479640	 160.708900	 5.856696	-49.669650	 3.306597	-1.650630	 72.557560	 19.572190	 2.384659	 28.388700	-0.000001	 37.524560	-16.306460	 3.676862	 41.743920	 17.941960	 19.477550	-5.455837	-0.921683	-15.429340	-91.776280	 78.527380	-179.999900	-8.581801	 39.391610	 6.725562	-2.937081	-3.064849	-107.245600	 5.151497	-14.689470	-0.392827	-4.130319	 21.525730	 0.991547	-5.167930	 0.731704	 3.519349	-1.378229	 35.397820	-2.634230	-17.459120	 7.681311	 8.488725	-22.570850	-22.114590	-17.020210	 89.782070	 78.304770	 179.993200	 59.209460	-7.540854	-11.365240	-13.397130	-7.875005	 46.747680	-26.270120	 8.280336	-79.815860	 5.716227	 19.173190	-3.685159	 5.027444	 0.246877	-9.377972	-2.350882	 35.473990	 5.254307
-0.413282	 0.210096	 1.245262	-173.109800	 7.858392	 12.030150	 21.015080	-4.013528	 175.869600	-8.588856	-36.976780	-5.533805	 119.908900	 68.226330	-133.727000	-2.385833	 28.452760	 0.000004	-3.156364	-41.917270	 161.648100	 5.860490	-49.664110	 3.309222	-1.385368	 73.219250	 18.876420	 2.384659	 28.388700	-0.000001	 36.305680	-15.544780	 3.798073	 40.834460	 17.044470	 20.108770	-5.122419	-0.555404	-15.293600	-91.776200	 78.527380	-180.000000	-9.828811	 38.439580	 9.449648	-2.940311	-2.960314	-107.873000	 5.303454	-15.779120	-0.342936	-4.130319	 21.525730	 0.991547	-5.167930	 0.731704	 3.519349	-1.378229	 35.397820	-2.634230	-17.177330	 7.675815	 8.378384	-22.292670	-22.321150	-16.479870	 89.782150	 78.300510	 179.993400	 59.057090	-11.092900	-12.379960	-13.243110	-7.804411	 47.104450	-28.265120	 9.688798	-76.174420	 5.716227	 19.173190	-3.685159	 5.027444	 0.246877	-9.377972	-2.350882	 35.473990	 5.254307
-0.415163	 0.214394	 1.246295	-172.651000	 7.635629	 11.593890	 21.413390	-2.847479	 175.999700	-8.659842	-35.734990	-5.416348	 120.366600	 68.055240	-133.915800	-2.385833	 28.452760	 0.000004	-2.444009	-41.388560	 162.497200	 5.869380	-49.627740	 3.314229	-1.016598	 73.764190	 18.086430	 2.384659	 28.388700	-0.000001	 35.100890	-14.832200	 3.897128	 40.020320	 16.077400	 20.726650	-4.775652	-0.151646	-15.177190	-91.776150	 78.527400	 180.000000	-11.008040	 37.750590	 11.840530	-2.932689	-2.841175	-108.432900	 5.457870	-16.890980	-0.299678	-4.130319	 21.525730	 0.991547	-5.167930	 0.731704	 3.519349	-1.378229	 35.397820	-2.634230	-16.876940	 7.677841	 8.188514	-21.995910	-22.585050	-15.761400	 89.782100	 78.296350	 179.993900	 58.282960	-13.713870	-12.669550	-13.290860	-7.625876	 46.255460	-30.196930	 9.829036	-72.869440	 5.716227	 19.173190	-3.685159	 5.027444	 0.246877	-9.377972	-2.350882	 35.473990	 5.254307
-0.416667	 0.217833	 1.247162	-172.266400	 7.445546	 11.325320	 21.812900	-1.923204	 175.999600	-8.725062	-34.622040	-5.307700	 119.997100	 67.933140	-133.376800	-2.385833	 28.452760	 0.000004	-1.754528	-41.053120	 163.144000	 5.759151	-49.595860	 3.228529	 0.034187	 74.116580	 16.638510	 2.384659	 28.388700	-0.000001	 34.053300	-14.388660	 3.967737	 39.408620	 15.119860	 21.280110	-4.440505	 0.368463	-15.168210	-91.776250	 78.527420	-179.999900	-12.082100	 37.362090	 13.805950	-2.905362	-2.680405	-108.936600	 5.593607	-17.933250	-0.286268	-4.130319	 21.525730	 0.991547	-5.167930	 0.731704	 3.519349	-1.378229	 35.397820	-2.634230	-16.625750	 7.675935	 8.212613	-21.802750	-22.641910	-15.644790	 89.782190	 78.292380	 179.993900	 57.707570	-15.330090	-12.834680	-13.381990	-7.584599	 45.738850	-31.638750	 9.870596	-70.695100	 5.716227	 19.173190	-3.685159	 5.027444	 0.246877	-9.377972	-2.350882	 35.473990	 5.254307
-0.418231	 0.221449	 1.248189	-171.747500	 7.104086	 11.058200	 22.276550	-0.782218	 175.881700	-8.816154	-33.293240	-5.179891	 119.431400	 67.797870	-132.585200	-2.385833	 28.452760	 0.000004	-0.925771	-40.618100	 163.863300	 5.616503	-49.594460	 3.119594	 1.653408	 74.493610	 14.587250	 2.384659	 28.388700	-0.000001	 32.762100	-13.774390	 3.892325	 38.716640	 13.953630	 21.999420	-4.026922	 1.012514	-15.148910	-91.776180	 78.527420	 180.000000	-13.371120	 37.043820	 15.985600	-2.864502	-2.477989	-109.523500	 5.769004	-19.208530	-0.276298	-4.130319	 21.525730	 0.991547	-5.167930	 0.731704	 3.519349	-1.378229	 35.397820	-2.634230	-16.317900	 7.679608	 8.262953	-21.569110	-22.697520	-15.553800	 89.782110	 78.292170	 179.993900	 56.576580	-16.772180	-13.277810	-13.428300	-7.600704	 45.616660	-33.257400	 9.580686	-68.843570	 5.716227	 19.173190	-3.685159	 5.027444	 0.246877	-9.377972	-2.350882	 35.473990	 5.254307
-0.419137	 0.223683	 1.248938	-171.428000	 6.860743	 10.869080	 22.518380	-0.015285	 175.834800	-8.928830	-32.380800	-5.115778	 118.444000	 67.773280	-131.438700	-2.385833	 28.452760	 0.000004	-0.264672	-40.341230	 164.373200	 5.440905	-49.568080	 2.984438	 3.186822	 74.658490	 12.789340	 2.384659	 28.388700	-0.000001	 31.931450	-13.336550	 3.860558	 38.274520	 13.111210	 22.489650	-3.726334	 1.534794	-15.146840	-91.776150	 78.527400	 180.000000	-14.214130	 36.858100	 17.296490	-2.816359	-2.295724	-109.886500	 5.864440	-20.084330	-0.304088	-4.130319	 21.525730	 0.991547	-5.167930	 0.731704	 3.519349	-1.378229	 35.397820	-2.634230	-16.152700	 7.786423	 8.507697	-21.450890	-22.621130	-16.038210	 89.782070	 78.292060	 179.993800	 55.522190	-17.549790	-13.622030	-13.421480	-7.577179	 45.555110	-34.038110	 9.448407	-68.050810	 5.716227	 19.173190	-3.685159	 5.027444	 0.246877	-9.377972	-2.350882	 35.473990	 5.254307
